<mxfile host="65bd71144e">
    <diagram id="Gm1xzRMZwQkkDzCmTG_h" name="Page-1">
        <mxGraphModel dx="450" dy="795" grid="1" gridSize="10" guides="1" tooltips="1" connect="1" arrows="1" fold="1" page="1" pageScale="1" pageWidth="850" pageHeight="1100" math="0" shadow="0">
            <root>
                <mxCell id="0"/>
                <mxCell id="1" parent="0"/>
                <mxCell id="10" value="" style="rounded=0;whiteSpace=wrap;html=1;strokeColor=none;" vertex="1" parent="1">
                    <mxGeometry x="290" y="200" width="230" height="120" as="geometry"/>
                </mxCell>
                <mxCell id="5" value="" style="shape=image;verticalLabelPosition=bottom;labelBackgroundColor=default;verticalAlign=top;aspect=fixed;imageAspect=0;image=data:image/webp,UklGRnxqAABXRUJQVlA4IHBqAABwNAGdASpaAlIBPjEWiUOiISETyh3YIAMEsrd+HIkkJLEz+bHIPiZib7WVP9Y1CF+3/578sPJ9oHu194/uP7Bf2H9zfljq/9X/s352/tX/Y/2H4i2MeOPJt8c/F/71/Yv71/ov8P////V+Qf9P6sf0z/y/cD/Tf/If37/Sf9D/E////6/XF6mv249Qf6t/+X/O+6b/wf+f/ovfR+vX+t/0f+w/+f0K/yH+lf8/8/++C/cv2Jv2a/+Xsyf8L/sf9b9//pu/af/q/6/9//oi/m/9s/4f5/7Kh9M/1P9b/Hz3dfNP3H+w/jP+9PrT+O/LP1T+2/4b++f3b/r/6f8MPij+18kH1n8D5j/zn6g/aP8t+y/9e/af8G/pX9//x/7cf3v9svZv97/aP7x+WH90+QX8j/h/9M/vX7D/3f9mPwA9i/4/+q7yisP/B9QX1l+Jf2P/Df43/ff3z96fsp9a/0X+g/ZT9+/kn6tf678o/oB/Rr/J/lJ/gP/9/tvw3/q+Gx98/3H7TfAF/V/5x/ov8d+1n93///3Efvv/M/yn+9/+n+v/////+Un7T/a/+j/k/gK/nH8r/0/+D/d//G////4/eX/9/30+WP7ff/v3jP2q/+37vGVGmelOoZILA20ROzIjvcIkfJ0AakxHe4RI+ToA1JiOb0nisk+dBvblp7ZW9qCxUSwD8HX6lSJi+NfjF+XKDVt8CNI0HUlJ3ewRC7dD//9IXtGL0502yxnNzLdpGxKLgpZL56HY1xb3rBD/o80gB37gUY9ioFE94OG+8SBl2C+IigwQmXjtmpORcQLvhbVfQI8oM7yN0/pobHbrNHUM5JEdfD/9E53lsefQ3AguXmVoUiQfzZkrH9usEbMv6wbqr0UHpEJPanbVZn9Hff+upOq6OeIPuB2sTWMhvEG88zEwQJ6xrPPfWOwd+hoxF8+AcSmvM/ub3/VOJNwM9Ou6YrqXUzJw3ldxr9+Ffdziraljp74t04hdc0kmMsFVHfnMd61E4/DaRBv60iclb/hVQruxS8Gqip9Qb5nZ96lTninUHBs73UYN/TPontf2utNCeimDuCTOFdT7TxP2snN79s7jjlA/rICEsWXlK1boZQuTtpIrsMnBl+8CZMiE8tPsHkOKxnnRORnq1YsVJM75ErnyYtZB9ALa11pdpqY2wKZPhfJhD+BGLq6mYmH1xCOXobblJt+2i5jHyCdyeaBV48dFtQME3svfvClmmozWNuAJoBxR1/tMMkVTXoY7LcmsAgGXP0++iL4lWPFxgsmug2615765ovnK39o8UQnPwk2kSppkOsXiRUg1C74goNjbhij8+MaebVh4U213qcPaaLvKI1oS9Kkz8+LnmyO+3lYUYRGVY63xU3s3zo/0qObEEU9la3D8HpLNcMCuczzdcmxh9Py/nRppCGwlCwB3WS8i6btWqiLdfYE51FPZSOQYwHYDxd5GfwViV/XDZdr1I6QemeefCOxUDuaDi71i2n7yhvVflS3ozaGLwtbfmyUjKvJwbcLoGj1UChS8uDM+D7KjPSQkafcnKqdEydQEhVb78WfRcLYs+pCqfi7WhY4k15Ez8WfUhVPxdmLgzBGN753OI/bWgjRk7LF+vJMntVeofbM0ee2K1Gv1y1sW20G5wuFzqDTrXzpopFe3YSSA7pzFR7UdVBSsLwfvlf/4ngm3boxL+gs//5eWAvYLSaV4CxAo8a7l8OS6k5BVfzo0uqmuW6dfhyJkyYaPYX/DC7EldwFW+/IF1f14BfspVcMT2Xpw/JZO5xNimzb4+knNse9n18K8IqktPpBenYeqlLM/Ez0Juy+Lf7TnEr2EQ7PTAEe24ii+u37CpHNUpkRgDeqZ6WtQr9/qgPnbiK20Na+0+jcr7rXaJZK6LpA+05BwUnDMJUVYVNHkteG5sl6ERAP/+RRVkhaSAkJpBxffjHYAZjlCubody2/iwxIyRyKZDaGJu1QXXaGcpSwae6e2OlW8clLasJX25/AE2Mgrk+gzcjrBheCU+aCoZBC1at+zfzaCeH/AntgTwLJjb4htws1wgQ7JSGRvd8Ck6Y6DA25oYpd1Ugn5ntbndNAns+zr876HNQyqGJsYG/cQm0bJHnNpVwlu3r5xYle+Nin7p+Vrf80kWBYVExg16itB2n/dntXJUiym+5SAvJItKKQa8sHQaHT04vBPDVFMdJHjoXLcuJnCojR8MC0zH3NmYlrPyXgSds6X7n4VNB/KvgPz+CwAgqrBYfj8+C7E8x/2C2qrKqQTrSJwYwUIvDvYwftRlemAecCwe2gNh0vMdwFFfu7IoglRBHeyNRVgpsnJ/CoLErsT1JQTMeriwyiWRPrmSi4/CqcvGe42aMe6okyhARqyklVwswgq+dpr+qBXn9SFU/F2ctqF8WfUhVPxdnLUkerOW0xZDUlmctqF5RKElS7s5bUJF3zZ/UhVOupI1fWMBUejHdVJJlcmMBzdhbfG/Wzf63jgAdvjGKCMxw3LpX5mBcgm9u0UxsF0ISLtKSoDA/1gON7Z7befy1B4OTe4WmXFT7DUNq4Cf+RZTIvQ/x7VEMe+j7/hnRm7HPoICXiuDUdOsNdCxIGPR9P9mSM0nsTChHeCtvkradscmKgK7+vAtPe2y1/IsicE40DLZzpPF/vcjI5KBOAGxt4wheLUwiUIyxttIS6RjTZWwmTIvq2us/bvMD9SAy/f//leB43lHYNknsp3z86lvxQ94atl+/wykxsUmBR+Nlu4Cmnfq/LFylq8osVDi3S0L05Z5moIaGsWBP+wcJTdeOw5wWnCT21ZM//emWCbt1Qe73xESAVM1/FgFuY9eV4YnRKJqTA2Lz9/z71gMwEWZx//7Y5abdAyUv3HFUY3HusClrICXiEc5UbPooMjX91p35GPiIY93LejZnYHPv85riX6OpJvRcCj/eXxDpXudKeVDu3sMg9ZVbD2237fY1pGdcXQuKiZMFfEuc/D9IA+Dr4cshCgBVUWx9cOwiPepmu00JzjJltyA82Nrd9uMHhaVKtsV563dO/zyqhhVLAGBKqzhW3CBWIat/6hLhAoGjX7MIBKnacM5+1xNGRT8fABbdKbh95D++6akctDTOJ4x51bZUsufYg3FziWPF/jEbu1Ei0H9R2SDQxWCVCBrgwJfws1TVeHq11ABUBt8IdKVrTvLCyHyorzlPXGopc9/C7T6tY9qz9ilFHoa4JhNiNN7/q6lyutbnVSqpOLAZ3IxZWe38zD9KdEiEAoedjKFKtFtEj49vw0mI73CJHydAGpMR3uESPk6ANSYjg13eYAAPv1Xh2iJeY1iUgl5/mDcwQH47CmrrO3S23eGCPQZyOF3u4j9cwAABA1Qcv+xyHOXJ0WZriY5MZpRzpKlU0rKwAcVpWd9LDr+E2HTBfsbfBkpcckAy+zeVze5IKA6m+rav8FfQFdxQ88ZxC2iQW/TqVEa9chv+zH2W80pFcwicUonsBq6lwdtUN6xS0s+j3jbO/P5tg2MoDyGjS6VWI2mgQ4UhsgKggcJCfQl+FNXk4k5F+kpLepxtfQLoajc223xOGR9YUG0l/2Vd/0TGbrinFG21k244kOrGV06Qy8JnQOpnYjYLTWm5BzgOXq6ZyVIRuUTo4V1E+ikWB8S//Hu/DBqCedxLRIoZcrGfl53ljvNmOUsaj2hSDnKHdhh8NCmdtKCRHS0SJaVd2NLZaAOcIhfOtx8ZWS5q9rFCpM1y7w3ZpC8ImBNJ0AF3x+6LfQO2+V9pyMue5C+lyBbCLokYWnJbm0h/OWGpSqLauzRQFwN4sYPcJS+ytXSwlURm9NgRiTY3b82F3Z4sWhxYwjXqPF5p9YUAKOR4G1iyW8uTkhFI9j6PT7pClDvucKxYvNJmxwBMBuqdieg6yL7gVNeTy79DbgTeLBYcyCQeQauLsbnp2UaARXuZiVNJ8nVQl8AXbHJisEjD41CxZmGvwWLrkpRR7cEGMCqiMdOLTnyuiCB06kG6Dnn4aaf5+5v/z8T5Td03YrTzTuO9HdpCgeDlw2dXLT5VwdWUNyQ3mLPcA0jCfDpVBJFYFFxIJAoi9PZpQjbDUZVTuZ8uvXETUD/zlPg6vUCD5pIMt4xNLpaASR4ExN9h2E6wqDURZs3E1joJJNTr/6nlfSIPCYvSKKn6Hi1FFu4U0dS06Gl/jvOiY8vAA2fpOdFpuhxR055kKRon8UyrqR8eVx3y9K81kGn9WiKhI10d50WIiOgLTuN11lSktx72IoqC/I8S+WsYAXEhZJHwcLIbdIaCqOQOG2bBGibhNXe2c4cOr27J2uprQdZwDE/k9Kr717cF4IANsjGimyRt9Yk0/lY3VUlO/tsPfP8QFdtBd4qoFErhqTFnL2N05Wo+RzwsMPjcyXi1MbGKg8wf4NHiSz0PqfQYENVAhe6Yf79xI9UUDX6rxnSKWc7TVqFHFZ4wL/ZMTBHyaJ0Neg/xO9pe7OLQ2VH9QGAX+K8TCtzGn9BTpjmh9gYbnum1tIwqh/8fRO7Yph2n9cm54UDJ0Qhd5E/mKtD5YpwBI4zb7K+Gk5ewoNofzkH5ZX/EwieSfC4ocIOqKKmxSQSE0ms95Urr6PqkwVBKatL2VV9jxw1EGzz/RgWdFKyDfLGa2lQhU4SWprs41+PvM/t7Rn1cWC0n/QB6tlz5D1L1KL7Izw9Odw+ZUnaKLJGCsCV4IvC07l/haUfJCpMiN/cawx4VSVZ4hGRQXOKlEAEWX7j4TESjmj+lYNPQuaGHCOiY6kN6FX3+8P7bwJhqAFAY48HLdWpLJPNaHKVu05EDaELEPTO4IVHcZo2puCUqusXnHbzW6y+WoGXlzoPyuVuwCLbFCkNeJr1W7ROwXmgRH0LWfCjy5Vu4fZTTD79swCx+QBvcW3vsZA9UqHNO9vQY7MG06htnHV14ZYFQmJc2wsPNVKFxZJH65ZfMtnTEvac7gGMZJ4uSXyJ6pno5eChsOmfrR9pKdC4nRZdQvJg4ifOldpTmjVPXuDzSO76PxULOCHLJTlbuwpGZ+K/sFuacRc87VWJ5fkhSh8uONtooLz0bhAZLW2NZXTgSL+T4Xm9UDRSpvJGOOm8R1oN2hgWW3jo3iD11jsAXg5QhbMbrywzroPnTFwgU/gT6nr5K2uRC7n4xYwFBaB51+/mUuPPDn+SPsavKhfZGT01LY6Ihxefo2ZWHjCxmOB0fVelMENvyur9gVIBO2q36/w9eloXQG96Pdvanw4lNhqZgA47Kcn5VK8h5yr0UA2vw0wz8RcGWSHNnHJMyqlc9f9PyfmrArRKek+Buk/CD81BDkQD8dbfkGoswUmRn1XNTgQJAkUeUXDNPE1IktKK1sTOeYCZP5KXebudc0So/pCwtciS7DD9kIi+sIzqhVGk629lNmCjNMCO+fRq/1WoqPPWg9FXDaOdOqvVqhF700A9z2tt17FjUqKjyiYAmllB2obg6/IzsI8d82A4chPuZL2M0r8HMfntetcDp6Q+C1FgNjj0MPCghp0LWCQOWwsPkWoEAi92zL/xo+wyn8IWZ4EI/YINkFJOJgUat+YmzJoQ13Xd83gI5NUPTKr9VH1qZ5mXxhr1uY9s2+238A7x4YT7Je2WiwbPwt9rT+63htIv/cQ+k+DAp0sUd3dPiIIYxa/Q6qx6Bn7XdmwKB5DYDo+AUD3Lj1RohOayGmWQJ3OhV0rTVciMbK/Q+NvKqAvanRYLIL2+vTjbeIAhGmyMckyE2sBAixedAHJ5zo7+ikq/4L6rIIhYFRHMlN9QrSaF5eZYVEjKjcZ0dvO7tdOM36TrRKbCXGkHXOPIar3pmF1Y4OJ7eqM+N9LrDN1rU2/i/yGkhNYPiPo+JOTQ+hzpNCYPvIREysyJVFZNhPUrGKJzfLlC8lqRYcp+lEpvsE81S/aUVbxxhUJ6fyUygBPugnf1Kq6O3/8VDRSl8R6xVUWG8p2YioQ1HD+DnBFAFt5uuSh8FRbaBYiuvLqRwdy+kEDN69Q91sdPWZqtC2MI+fSGYx+CSsMSaHJeeMefyMqDHzRl8saS+EzJ+1oSpSmjetbUmzHYc3SZCCYgL3dLsD/p8gp7yw9rfh8fl8KKhTqYrXMVD3CJ1rOse6pVC8/fpv7W95UNYEBj/iC3H3ECVi/ffB6CKfnOq9kDbuiAP8Dddrk23e5og1hG3/a8vulasUyxRKg4OfyNkZFEjimyVPyaiBloZD62+EqUxRQCWJo8kqgbYVBJJSMKJCsdxpeJx6otqQRYf99T3jix3CCQNgWBjAGkUr9nGOjo1HEOpPokLut7q7W+e/5O//c5liJIWU1ZsBgfq1R7d01dr+XwrEfJi5O4pfFGYEBaaH5ww7aRJS7YDoa3A+oQEiC1p2dbXJyRuXxsZn2y78lP4GChTQM8fFB56wZuIGz1g0LIS36L18FPal1XAL2bNMDBmahfp9HrV6uQNUSFtk6vAa5jPYk70cVFW/2mbpEUzR41PBfRq5OG4XBzLpKftTUJKZB6733zTv9/z4xnT8zH4SJwZnw2mehf0Hp+u4gXW2bYuXk9iH8OT2BCM+AN9h69nr5BbB6kO27Rd5e5xbxoBdwfk6XyNQ6eRZ5NxvJ1DaKHNEKSwCIvQKd0OOYktlPCwjBPrkmWM3jEWV5KHuvmB8+shWXRK3PEun0x5tL5qhlKUcxGQyVHusxNH43qnATyZdFYTS6tv2fTnRA75fY3Y4v1ORT0xX1rulkZ1EtiGGbEB6zZ2Dp4aKcrXW8y6yePikBU8qDvEN2ISDUUVUu8Sbrpp0KiAdA4oeFcf+UGN+WKUpbGZEhL1Y63AAFUV1lj2GI5tvBkxJAcofgiXR0sEq1rRw6aKp9NLoFqOWobZjq3SeE+aaeCBgQF8Xt5Hl9R/a67C2Wc48t1+VKHCJ1z/6pk5N6yNFrAEt0A+aFMzqYcEYUG/kGXXoEhzaqKZmV2vYp9czlbUTSqY26zFaoOOAaWe3Nx8iwqrWUfcmeCHJZSKMsRGz2akOPIKz0BE2n9QxAIsGPAnA10FOzmP/A9Y59MN7Sb/tBlQjGS4mBP5R11P7OlcULKLqOOig+Itx4Iv9++87A3AG17Y1d04bmU9f4K6VedyciiFtf+16hBkM9uj2kmN6X6t6vCNxt6cj61gyVapTYJBp/iLGIcBYUtYV12jtNTaQDU9GWKzezyqXmsU1qaxIJKMzmDnKVGIqMPW/PRFLF0UluyG5B1N9zjouD90lF9LBcxe+3r/9rArqztb3+a2NfV+VkjqqVSgnwFW3twcypYEg4EZ1NcD9ut4ieUdNUW2+tmDrnaKa3i2wZQHvALfXp1v9D+e7LM2m4SGYQE4oiLIu+zximggxaWVdaAdkprHDCJROgQKBcVxBhnBq194ROUWYHT3U+nnXQ3x5tCoNXmew7jzjvwvTCrYdMRc5fRwlI036K9vQsRb4GqIrbIQsgEqKd4wVwtvtDsbkD4P3beer9Eo316jfIbekUWixj11dtTGg9LYb4PmKzpzByam5NfFDZ8kT/hqobgvCC/X+ltAy2DQSz8nrLB9n1Qwbtgh3IqkXloqG6hpDkN2r+FccYM97RMKHUHVbiQYjM8cTS5wKL1QF3zVBSheCOEth8cchrPazYeOSxrLeB+QXPj4pIWvHy2pTwfwOqrv7peKZbk4BA8rtixzXs0C6qQyvYYRxPDP22HqRunr3f00YhFXTZjHhV7h8r9ZUy9gQOAU9wRMxbF5QSMmH2I4dQRtJZm07hxqbqgWFaF1MkRj7+ROzefb/ftHaiIRwoYHLCeP0a4yNoOzkCXMol4O/f0yCBSEgyswuE2I6s5K/5rqEyBAAr3MdUCQYc4td9zqKNiPWGzb7ALULkliAubFEPOZbO+KOi0xuGN4xrbRUIdHj6pzRq/XFOcflQiLvsIv/XV8HpMgrBUnVSbyWYzIgDgXPIyTre8GMVUtjxwdznrKvf3Bgwcbj44r95rYexUYezDQ4mq+gyJOIwY37f/qYv4xJbPTzbYsNv31igCff5HbIpnq0s4RAFlcIK6wurfwuM/uNVm1ZBEwFZQ9cSZDHoJArPu8eibGNdPg5+FgOn5Wz4YjsqDsN3cmI7tyaQV54g1pUYpTeByXzqcuaJsqXGWrWQTT2fe4/Qj4dXXg/FahAqBP4mOTUE3rXSCmXQX0h6u+yobMOU/6HLxePGSxeZ3ZVC0NS9wak5MCL91Y2IzeBEXY34cqrsPuMdvNpJRibLqM0fCO419ShmodoMSFOw9UuXVyZ0poTQe8zERNHx2YE/2Xt58LBFJl219Op99YKV3Q+MV6jgTCZjdlSrVndDenKWjRGLWXcshPMTWVZShMnfDvAjuLXYy4iioiaDQijlBOOtBDzIJn5+GVaI/uJKayPGmDhJi5Z7Qb48LSKNRA4GXl/NhBie/8cQS55wvV+AWQrMJEYJcIV9h+p2bL6tdiTmK+awWiAnuCbOelm8epnppgp1duY3dHCnTHMcvp26AHFMAzF0NSUFk8dL1Mu7R6E73BTz1MynwOqPLALJhpFyhCAtd9KXVQKNrgJUEn5z2Ul6UjP3B8omSjQPokYgNQq91aMe0zmxjfKqXBAVTVU3ZcBY6prL+UZAlYpguabc3l5PopIyX19wyEXH0czkPi4UowK4Kxrs9iEloJs/Ublg9uJVcYaJHlXeI+AXvLrZYfeCeC98xJcasHHMxAPM0Z5O5zOwwm4GvnDjv0tU0dGn11y8xTewPacfMnAcvNTDE2/l3KzTm5HkJUCCpgF/sRUuRRbLoQ0E2BXm6XMtuHnxfeWMUmHqOId4q88If1jpC3mpGIP9BpsHdx+0frKqLIOrYagcUJC70ADYEm7yJ64mD+8p/mVShdR+ou0ubugD06jqFUpga5Lcg9YTP4MPgWxeqU+Ye+ZaF7m45n/vJYzceNLRk0Qguuh9r7yCz5lK8LfFTsNRoxrYxua/FumONKz3rEd1Yu55AxgM6XVkqOltLBR50w3B5YGxEWaohY4bW1psjpsLzLmcZweXu1nOeSL217nyxJ5W917KSIqSx4bpNyoB/WgyCWn5cJ7Z2z+aCutjJSynReoqt+xSW5t20PJcTq2Wm0Nv5+UEMjSticrWFBsbbW0NgLzu6Cd2ORggSgdKp17UDQd/U9urEJ8CiGvqmJseOLGAqppXijBD6wsHPTdlCxNNoO3+Ndm4EBr7NXPJFj8JtZMcLGS5WzewRSduabZiQd33LYs+qH3epSmZSTPDe1mFs1kxw6KMh8U3EHVQsRImRKeAc9Sv+vVGFKsBhhGv0Q7H2JeAKWL6BeQYgAy2M/PZmUMjmSLJmGrECMbgUScDJp+yvBY2sKt1wjCn6zZyF73EJipaROokXCjcgxescbq4xdXjn/WixDYWNv93bWvBbfxXzqYKkavmr+f/WHwW/nG74/Z408dJ5KLg1nKfQ3QNeNs6I7ws23nktvnjuOebSujqnoEpVB5V/wKDXTQXlqMB6GPgjbJxUtstnW1CnlZcgSYPgs+C2eOlYkRCFMx0xIYauBzupPBHmQlc7JC4E5NEO7uGPX7Dm7D7SiK8RAQl4NYGDeo7dR27zo+UXhaKonyFyHkUAvx34P4Ei7gVk0WtTVsSXa6SLtuEe0/+S3l/nIxmr/E8LnjLhqrvZLLC9uYaTz/0ZvW61b+rdUYCpiioHqTAWVwOHRHWkD/D7+Xzr2aM20R9UYfDoP9/7zFzqz7aMYxqIAFK0n7VzUpGt7HvmwwaA3fFkwELZoR4FnjrAqIBQzW5nD0JXcxGVxE31h3+v2XEzHPD0G8+I5NQCd9AytRxieVQAvIY0CZd+Q9UEJQBrsyzEpapwnXd6zm26Q6G4mZlu2slDj465pCObAW/fdpSAQvxL33JumpOyjVdtcERCw6HWYdEgRqCCSAdJhZoJG2SltUxldHTEVMi1L7UN88bBFPeI5jscjylgaluuPlOkb/JyxJtFt0plREPlMWrjbgLZi0fpPJwhaLpfXuuLD7t7In/RkySBtllPoND496LG5fZOgKjJDiHEOzYergZvMASaRuULKNjOIugxW83AfAAatIEPmPlwlZqzClfXeHIGpE5qMXe2D9Y+Cx7iZzgEEwJtq2fVNjGvzAqMMuRDnqbKfok0y5seAfU4T/9kra04UrnvQD6KngeAHehlB9MqbzLPBdJgq2fsshx0n0Ew8yDNrgltGtcULSaoso/CWob84IrO1U7qk24Jac2nbiSrB2ahniRVcnZ0X/Tj54yYBY2L7ywjqi08w4PkreGxsqBbBQNWsCfDeQKowTbxggz/jht3+NL3/Gla7xrJOAI3QrUGmQDBCQOi4e83xx0oZNwHOd2OR5KDUwJzP+Q7iX5CjUAO0WbqN17JKwoUoyXQqx8V9C8xQyjfJdhPSTraZwvNPIsw311YdPUL5OgeQBgdiJoGjTvQhiNljoTfE70zDwPKpCAEwwPRbnja7i84pRdVmehZTsbUuQBNX503CEVxmbK4b+IRxPSfHBEs/YizR+rpt0OhwE+Qqo15dd6RAJrJyaFL5dBLb5mOCY4Nu7snDiINFjGS/fA1akWvvLOBxyS9+aziz0KmiDn7YVxZAWvp9WW3f2YsfsFogwyXzSLua58YflinJMP7x5VCEeBoJ4kAdVtQHMs/RX0y7vRx2fkvkqzCzCZBS6qAbXzZrtWNMTmuGk68Lvr8xoD5m9sJd9rMa9OVWHUcOtQIv7HZ7lx5g8v7UG3uwnfAICgAsKjG+/XBfqXwosYJa1m2UJdl8EWt9nfoAykZdIViNngHtpba0oV/8FAiGduz/bx/ixJ+5V/MZugXgXDa8DRjSAD33Wv0hUW2S3YYY8AQUHuilcVw6FkgxsG830oJvPYPX+oQO2u777HLRwu7RSPeL9Rv6WbXSH2yZaelFOHqRsR5FakQP+Sj6C5rEY77RUZq8sSAaXmMwDMRh6/U4EgUmE7X389we8/2YskNu6yOLlgl632+XNsNRTgTgrgmwpOwjkcampV2LZATAOqdUcElL7iqWbA27yK0rR4oqHTrH/V2SJtnMCxC0C1lOYH2UgNr0oTvb9T3CuNlBMCJcnkdQV+9DwfftXglO36JhtchBGFp+RUCmlTK7wPxkCcEIT9xJU70Pg9N9MELBB121OU+HhI2j3VNnlMRBdg8/3Rkz79nJQcQ2WoNR+NI2OGkDoXuycgAmpgSNrFyjRN+wSF49WKTKr8qqK5avlgtUom0zZV0u6rmirJsjImJZTYQNbizXtquysIwKBEFmu9P+y3Pymvq2L6YLK6pTpnYgt1tiO57TwqhDPO7I8822KRYEV2Eg3sthvHoDobBsiTlEFRFQyVdtA/rEyt6W87gENOsjUx/FTI7e2bprJeSJnWftb2G2UmekO42q+EGBZC75XOASOb/9EECfE7qc+bs7flzL+mrDrXZWRhSstgy7pdkUvx9wB5OZfcShzvbJzcRKI/+SdVcZuItsU9+oRJYx9miLlhpY07M+waiykaCbmDjgOVM1DoLO2qER4FcxiSHlpNhd4lwDOe9DiEqt4zOtFK9Rqkbuj7b9LKQX/eYDCfyn1BYdMAmJTuFZgvRlm8ZKWRpI601aYpr75xitWja9Ll/0cpFhbG5FbngLZUbaJjUaEBS6w8UOveoRerqURG0M0fONHC3l0bPKZXOITgTSP5XAshMYfeaq+OnAhB5b4IJWRytUfd9+Uz/sViGAapcXfJoOyXSdtjyoZbuJeWvUWNymHrrZkbhDx6OJAAkvprX5+gcL8qTEEpzMKGhvL6s5u9xlLGCzAq9IZyGgud6Dzya4idTrIbXJcNbLXS+3r2aRpJMrwKIC/yln1bIxa7oyJNtxRh66aXcP2UJWaiE4OLz3eJ8J2Cn2hPs5OvtAZ2e6y/xzPAhvijof2qzXCnGceAxGyWmN2P4xt6EVDOMlcwdSHs77VmULtK8tfWORgBddGQ5zxszMUUGlqtVwCEeT1+HbB/1ansuO0QJ3VLfPvDjnE6T9nTKS+j5vYCQSBFAc3nVDUo69clI7taKHKwk7UT61++PTC/weOWnHonAXp+Lox15q9yzwafcWh5+fy5mUdbOR7ehe2ANwO71PDbaGguQ80Tmok1DQOM/Y2UU/waq05cmCkGV5DWYLWdtyL1iIoR3E9w9PAc5sqWGXjaAc/rNZaR1wVL9/yU1HB8DMIfTPDtVBp68xE1j1w0vVSZF433vuheaoJQWm7gcjnUGuHuw2bhuukp71kd10HYPI1tdrFwQo+ZVcAC1Gh3eqAmVKTY7MFy+sMuXTe3je+miZuXfmYjnNr2eLdxyijgMezle1rreD6GKW4V3JNFCbiApMajTSFtGDb3DdFEVmMfTW2QEwzv34kLD/d636jJcGCZwpOjgOu6j8+oEFlH/mSdhrBb1JqhMwyqik9HIJni+VIK2r8h9IDbsTwUwKiVKOkBWzlQuE5vJu9dF1zewfFuVIKsMbklZhV9nCuLTJYOsct2nLSOPk2KgMEPXxwxPpmzYC+g0FBOWsIuRFdgXqbIZ4WRjL59hLRlpU/40RKpeaJ684gVb0P0Gr2NLB/R2MYfU8pKsit1BWXL+511SbWpPGMp4Rf5IVw8w+dM9f6uWlTsHoE3jNJpL1tEMDmE0GzpwjOMnIOYDD26FHQd9M/7q4hr73vY0gEdbj8xVjkPIeOGrIkcBTcIRhb6JwIbCBejQMRgyIFmb5LmNRRuFw7ddGEHYbqtyN2cicHQZAOYMDnkuJnTNIiLfrXESk70hVIK6B3DgzrovRwbf3pBWaW7A3uNf8kBwR8nl7kWR/3+EKvjolBEMrJRIEiSJBTSdGRoGgRQAgwlhvRs5Dl4QvyZjq45JM1DCvdj/mF3wXPchUhiM4u7qS6VCZYo0xyHh94fQwFUxybIBf50goi46oBgQsm3ovIXy6C6l/I7KG3aptuXPagrJFcfHHjUsRVj+hyee3lIdXxfv3xJb+iL2rZgEenYSgDD+5jLl3RF22L7quVbeCIhRyGf3/Q+/UJ2UIAIwOzc6oFWcEl6mEV614xG+Q+B34Y5e65QjtsjqsFGZC4MhSRTp5EDv33a11xI+Ef7alDq0/bRGlETqgnFZOtpkr/O7I0qgvmxaq7B7zCOyNJrQJn0ozahWFidOsY6QqT6S0fK8VzSMB57Q+nKGZdal55eoWBlwvVO2jPGqeXqOrRhiPnYe34VYN1CwiJtclIv1Hddq6Y8VFAbkTJFL0XtDcNWhiSHzL6LJtPeBc8hVRzGfXegbl8RParOwb+Yv1UzOJXGK9GVIV2bOxV9CxmHo3hHGqVBTTg/f8s32P9TrNP8tQoY9QcGUxSftAaiqD7WHtUAcbHHkBzIRwQjmaJwEwMxZYUrPcHO6PN8qamIZJD6BQpY40ciPN2Ha2rVjvo9m1NP5IvE4gw26zZFR8SLtIzC8hxMnaWXxP4XCgYx7XASpEIAdq/U1boqfmCSZdeERcvIGcq9kbv5SgZmBWy4O+Aarb652csaSaWbSjRnAacuwKVI7w8DKYeWk1Ep2/4A7HdoEAbmwm3UOmGZKnKRRMnUyaJi/su9UnX4mBurfpP/dnq8gLRRgI+fET8LmN+jbgthEqwFeFpo7S8dMfxZ1Pn+uqJUlXW/pYpIl9nrCoPHxkK+0EolPXA+/fUimKqaFuUNIpfGu8/0lQ7hbJvjHdCf1L3WQjyRWFWvoIKmL1TnvS2lHL2WETSvETLZNw+FHzKe2ngILqhUUU1B2AKR9crSJLlrTjZEN+B40gzUBwJCzJ9uETpayK+myu8RqlEhv5Vqd1Eemyp3fqEI6uaKUFdyV3VCQhNqBUVQRL81SLYw4CxFs4l2yAWKGV/X2tcGjgdhL9WqcrgOVgARHkPKxcs3v14mThS66AcDiTM2A96SqvqW0aHVMAfylDpRSyCcMeigLnfry6wCLutXa/pCjUYv+eOGU90vflwB82iqujkj6RAVdtXRVIWaYrNry8xa/q6UVwPJMq2GH9OsqR8DYauFskYcgTv+xxvJUE1Tj5bNZX2ebcxQU6/JAxgKhJfT4N+/hBy7/w5K+q9Gpr8VGSNyxE25yBI7YzuKsqiRrYJSJYeYGx+Pk/jr2dyZoVI9b2PzESzb3zv9E6Pmb6JuhvFcYs806lsYEPmnebOlXRz1d83uEhr6mv8NZdU0KPR4KS/MWtzxQpv8jbcusIX/IZESj3df69e3Sv3B/Nc2UeAuw58Pu1f1PyEq1hlTaXPfV386kFmpYnZLAiduUKPNlex8qovuI2o+q9r8HR6G/RVawX2Kxc4fObcgNeoImkhrbrghnujif31cmZ7jLMm5pwFmsfrOOYiEUQuI/AbxaEDYB0OV53XyMmwiIAJ55XJrUIPbs9ZxygDzsznw80BYXVkUGmuyjoxTwo3sJCidqAFo52iigLisL+KsHwOSFduI1OKiGjg9otk29XPCVsZ3aeoogMn4m6uYefYIBrTwFbDbNQJl9JJXERwKfKCJhFvYpBcqQDvUZnhffUHre8Xsf4dMeomUcTclft8D49R2sHrFtQ/FBCnqOVetm2y3QKQ9XLTGSfD7cyX5+77FjOTFCN7qSWnPvWwRbIjjShY5+YfSiU3xeDX3+Tcd2qlDIhzmEBpRdKZMGXtFfRy7DcQe5CNCBLSRwADyQAAAABhEhb+AAASxwe5JEA/Yj9jLJcMLReXGOVXB6khaqktfBp19KLYz9aYml2rV0z3uEPQuGMLNrluJGUOgVFkXot2ytEMtonUYYN2ND2xifYb08+SIA8aeR4dXZBDIPxbj5z6CAZYhPoRnJ+3mCOtbDA+UMYYFBxxWA2aav3HreI6iAo4wS4Xv/0i3jUeDaP+Cf7tuPnECTGTUWYdNzxPPF1oRv5AqMG3Pi84Qkb4aPyQNnAM5v8rlMtoc/gLOLAwRQD5dE/OvqeUHW+8lkQu3e45vUkAca4GZEbzGP01qpXAS4ngRSIGB9Q67jCBA90R+SJg87YDyMVaxOGFLMp/Dqdf98hnjzBAz2WL0c7FHL7L4e2AYeCxOPCVPM2/duhPmFEEFFy9rjPIYFKgY6Y8t6p2TcE+VNpO1r9SDJpiohgnY34fTVyRkx8zsNh0UONF8t9DHiO6iVFdF+5KVU6x/CCOnFKBPg24jv91odV8JCkJJiyeNcayPtWwFNo4U5wqyw1BPwVHVQJ8i1+Yvro+BxPGT/4gYYEFv3H53RIlrqDuVvWNyu07Pdu1LL6+6v+6E0paW4odHlcgm+Iyq13TinXIFyfI6YT5SrHArZfCVh5L629cOrXOKBWCreJUk28SbLTBbIs4KB2VtGJOjm48kCr/GwvijF/wzGp58A7XxVQSSeo5MuEOKZzGOORcHbM6DTA3NxBN74JsXnY42vUTqgYJFaOrlFWNnK0KbEPDdLgQaCD2M5fuO8c3olbj430aotrraIXLrSe/5+YYOYGTz0ASxDPDVNFpjlRYTHH1XPw6ZmjPYzOCOmD7h9O79wjJfcjR1nL944K4NRo4ngn9byQjpKHuNnFr1TmRyJuO3v8SrHDpvdy4bd0GGpOg41/l5Tfebft57eGhKL59mSa3d7IXK+/1QLWUNc8JHCeldgcOIMyZYy8JQI/NJHlEzSpGHbDPe7zf7QlFuYDY2efWKb1PeZa5Gmin3tTq2u5TDYF691HY01i3nLkFTcIzEAM+05vBM5tPiJYq+uMv834EpBsfOD7YV7DvwaCan8QERbd/9oqf+1q/vV7onfJvln/7embMcCv1Sy5QOWPTI4mIGNcK8B+6J5L53V5M1R3kwsZsCEjgl7j+GIbzDISWGmxoDDlb+is5bo20oW6QS1kXmLmhJE1/KqTBCeODmjdwuUy+i07tpm3w4PALEOZ/DCLWrQulJJyGroF8ohvNfRCrWmpRV3hHev1kSwEAdwH87RqrdddEARINibbNffs4r7+qcyLMhR2JbsDDpH0fk6OupJBct96ZqC3G2gHeZ8AFWBAhk+myxsT9M5oPD0gxg2w1Ww4NpqAXeRlM4goh0cD09DzC2wAGI4cl8v07WCd0Gq6TIO6te9ALPjMqu1eLA/CN+9lpd73BJb6Pq/MgDvzb54ab27enNZ8tIEIRtALKyViwXP+BSwLbuejcutbZ61wof+bZ6Hkg0cagPR3X35GcfPvyJkm5xb73wO4T1a5J34RHEegXE2Ssc3m3Wz5RYr5Ty9RMP0HXFE8z108jxIh+hXmTic7odRF1Vsn2Hcs75b7I3FgVhzLud4CL7LETyfMF1ItPVOW+bg5TAnByxeYr4cH67ubylupwnoA1w1U5eLMkzfr4lwMgpe0y4aKZuCTQPLtyEboFjud6Y+sYHgiKbA26TfwQeiJKlVhhRGVOBfLwXuqKrhSySf2WJeypfSML439VTzYCn7exndtLSwP8cHO4YjHIjmUj/EmcB9l5+mcyW4b3GqGnHOeyFUGD3ek0ix9NY/kJYdtVVLrEx+vmQACvBPo+rlM3160zoFxAMuKa8tk8nd0g/Vw6kMO2gc8/odxLMIbOeGOEmF/YSCNTkdH03fPrHMNtvZ7o/Oi6+SRyDVQpW1bHWvdb/qe5LSLjMPlO1U9n0a7s7qp3GiwGhUfCNC023vx/m2yKRDsuuFp9S4fb8dcYG+uiXFUEUXlj0S4ZJSxVVKfDJOd7BcazstSaiVPuzKj8JPqGzLf7mbyuIE7CsjFcEcVPUI2n4LrJiHlR76vLWVmqO8i+Oivi+2C9HkCxXZ4ewuOkEyhLqpxjyg8j2jHMHIV+FtzBZdnIALOKw5z50H5aU1S3BjWkX/HyDqOnFqmaJSagHGVwchw0VwElfJ5Qe7+xIPl08/QCG2vp11Fx8okqjXpjSeMNzSEIphiIBRrA+ez/i3N+8UdS9BoOkb6gPQXC59zCnNlZIBTpi/v5eY6hlSVzIB1n9bi3dU8U3wEEZ2gZm12mqiJj9CYsMXa5eji30sCXzjdgke0J6nyGxfpx2SKx0eKo9GC5EKxMhwtHyuJdr5s2Ntd8xQb86Wxr44DoykaL/8RzU+Hd4V2oeJOYycNCCa9dN7/FtPDqOv0J4C05AvQgth8y/GklVP9tQdyDl/xURRRqZwoIFH3t4I2shVI50iXR8aKYsC/DmE0qWmrTn2ktHVjyIRUrsHSkXkDYkBLnd22TkW37R8Rrd8hA4TRes8VCPWcrcY7s4efnZVuwZTV6FYHnk7CFD5zVyHT4IHLb1R75oE0oi/yRqW7L/HHGB4YZGmuLN+Mdv943iG4dYs3itsp2Cu7AaTBvCyFGfmlMu/uuV36Ycco75MKE4NzQAya3RsRuQYy9LLLB474lE1l1TmjJR/fTQ0vQvPtz8a0nTXk6O3OtFQ536JahctQzBdeNgXAqI6YthC6SIDJYY2bZo1SL++duWsFwy1Q5qT0/Qqq3w8Z8bhFQS+OxhH96ZPTnJ05ox/kqjUSjgLVrOpmEJhGuqSslgpw60ytf+kAQ51ueYrGvnmcapUL9LVc2679BI2AiLx3f5h6jEl8GKdg0EjNTHDyy5qrjnMnjZd5D0RrV6W2eYc9HLmdGW0F6/XYeFYtITJI40D2Qdd34GtK62QH8CGlb602mpqGgcCPsogBXT8UdiFNa5PS2j+m8H1tnCRgYRfyE+ovWf4aYyP0meINLuCIHtD1Pj0UfoEe/uFGLsRJPwOq/JH3N1XKODsCv3+PAF25MXt/cA4rf9xtu9UhEyNROxOc0qqC/3C34aLj+NIsDjfrH/5NIYwC4NvqRx/u8uP2Z5V92KFmIMyrJRy5H6XKw3MBaZQN2bv6hvrD+PqszveBl3OgJOocSnmOaSCukPzbo54dHpBs8sMQgBph0Lg4KeUCz+TGfVErv3aPQiejUK5gmpVjY7tCPoJyEY0PQJ0Bh7/Gw12zVeOA6QAweIf2raxN06cuQHiihnz0ADWqap5oicJPokvO4bF/Z6K6csFsIQdS1h32LMxVVmIs+sgzigcOnxChcDx3V5qqyHcOFsyjYchvPAQhyyOUH+5Ajhor64AxVQy/x2IDluVrF8VERmltxuZUzWjBUwD3l+/GZ/6lTIsjFIAlNx2HyAYpbp7HsdpgX3BLHFJqyl10za13fJmQ6BPUO80gYzpHqru0Am6BqhwEjT9qqQeE5z5B5sYnYWEdqW1SNrYHpG2qAMDALM1hk8F0P/AvyUOLxfcPd1diBMvy2mCE7jrPzMxHjyCWvCWcW8jRaCnuS4FIADfb0MbqaPYXP75E2m5ZOxCHwEXo1AE6grOv8BRK9B94uS9cmNLye3sp2MeFw+MCR/Gnec2+XcBWQE70kGH3mVRlp7a2SYQDBpB9qfjBwDWNgR10O3EpjhXHeeXEYe84xx/CwmJhS4kbtAtzUYYWCTpxWO9UT7KBt7mN7MyeMW37PcfeR79YeLGZxPrizzzB19oSs6PWwr0szJ1unq8xRHr5rhAMgIea4tIq6tC9SCqJQyll27X2cGj9NL0tW8lJaYPS1QVd0ZUVMjGmG7YBJuVVNd8PXMbzwe+FqO8jXjUyxbzfrN7/+knxYKy/jIbzuqKs4zEO9U7E7oBjnl2hd7JvIkPwaldPCA8Ur3E8sdtg6ioLgYSKE9pwDyMgFQzKv9n/zZ7yEleO7iLg21XUovyR+yWB923pHkh9BAlbB3l+W2iAQ01vMAE/O1hUfxO4WOahooeguD3WdoPlz9YEkUwvEimfQ4dQVqf05/3pFFx76URn1umJo72zfVxW50SjCmNrmEMhwJIkjC5J6H+LchWk4IlcZl4R0QSsECqGeJ9p5mnE0hIZnnYIJtxL6kVedhhX9g0k/4g3K/Wv6vOMoAzt+dtPcv31BJnQ1O792rRUQljt95VO0ySo3/fgxOPkQeJZshxImGOkM38XP8839ebHNslK4PTVU+ptxTRSh7JnVey4Rs5CuHFs69T4WbC7segukpKdCNDybk2MbgHet3vS67ep5Mzhr3cTiCO4e3cwiIMeAWYg9XPAcQzWI16k+jOneMOUrvZBxDsJ54egJXAH1HIw2Y4gpOGSxFr5KYSATWQ8FBqWZAUwrg97+SKgWlpmpsVbvCaasPrEZRI9F6GeiD5Fe+FQJsWjNfPsOotGaZdaEvEWky+kN2mwcq13bNt3bHoHkj1IzrUKCrGk1mvTkitDrJ8Vb3kC7YT5/XVMNKwyZzdxIIn29BFz/0U5G50Gay4I0Sk7ewK5zOcxLDdpNtG4Ko5fbSeIr81kKfJmXngcevIEBP/gUZZHenRO9sYVCSzmZyNlnMgLXM2sKu+TKZjh4LA7wHavF4oqDnXZlqwyoG6N8gJi92S5IBPEr7a9wbDOILUUc1dm5B7mVCttD4ZoaS+3WUmj5Lr+t0bxFs71JvoehHv41UwDehHbDBH/7ZR85uLpnMyiZU1VRyRGJOVwcxqz00pWi2QxAY/b5+73ukg35SX1fuZWVtNIHesyILCXozGjgZfPvn/jSZAqwj0VCFebMigyn++OHG0w8jVBD5ZlnbxwQKTAZpZBOXJZipYfiFAu6sn/cBW3znqbme+CQswuorpa2alA4jtPJBulGnVFHvRKg2nVLYabAO1GgUCRi9bbv4rzdXN15sMM+zVSGNtbj+l2VnUz4zqGuplTyJRoDju9rKYMSXYuWMMxlgoNBeZ6UopZQCftAbkU7V8K9czz/Kdx/i5ss6rJThn5b8t8MTMDQPqDCNVzT7KxlJUT3ybbOpTjn7QsJNJdWvORnyPx/Cjrz4JxC/25MTvs1YVTrVWFjUBzEE6RfE7zyyKO1hRAJosoHNKtkSsCGVW/V0V1wHSCsGnQ/w9AmEtvUdvVqdYS/yokY1XmNUO2HcO9U0tK+Nz4aY1OKemmIHNuxpHa8BtsT9JxJ/cZMHYSDrjXX8fBWUXOH66ltop682e1r8Cyv9Uq2w7UMYORrEzR2bFH/a03/am+5cosLfAmSRg08bL9R7eYumoAouQhwDCKnE4Q4jq+ie87MtoTGtXRPpSsTbMGancn9XdgexEzvLucmqDDefdYvkod0QTWIF5B9iIo7m6jQ0zD9huiRD3yV76aLgJ2tZP1xrr+fSOkRFpVmnrcpENt/WwYpxqm3pDyh0wKj+2UkEDEvnWxgYP/H3QfSlT7fD0b3ACYjXUb8uNKv9qp+zL7QsnBVYRJj8g51mjyOQP+0ja4SfL3Fm8DJAp8MY4X7ha3mfJfJmbdBjDZTANevK+bYXPkSsNluS2ySQ93uaKKP/oYostlw+ZbOk+pAS0arj9aEYYSolt2qlE8XQaPz8SrmMWduyPr0xSI/8Ti3/Akca9/SbezeKF27LBOmAGeNHLfuJeTm9IoXQURX+jDlZRs/OUws5P+BS0qMbsVmZpOhJKyoUUc6Y0odTNlwldy6eat3fMgPyIqigM40XkrNRUfCHZi/JxWDYBLrESGTeY37mim7pPCkWboAtm/MgS0waYGC4rZiOhRhE7Dc4oI+yih+ev89p+zjbsHYAYeZUTiTwzxszE+rLoL5oGZzgP2+o0Ed4lR43U0kcLmSlugebhnD1ZJDt4N3SCuyUsgZS64HVw+iOLnZkC3+r9wBNwklV1Nl8vRSvWWJBxsLs1g3QLAsFnLGpDWKZ9n+cLW/84xAClu6QarsYMT0aEzSp+FTnRBy8bzbFMlMQeCzYB9OM4FS5zEgZuWz7BQBOSjdLNvtckJ3Nz5OMFIfPHASFMEoTuWFNoeLxYaVuHbNS8lkhjaLIQceFwYBs4eigQg930T7ETbkncB0kb1+hfByKFac0i+crDCFoFaF67l0vDBy00URSSZF/+t9QuP5okkDXA+01ZlFAU2tjwl4e5WlTXX1qjr1Vqh4LPUIF+6x26r2EqGw9QXrgfpqECRV+5rkwwQZcKsXEP5wk+3iT8UNTvCGVU05FiSlnyvCTBreLipc2KprF3abZ4rnXepKcLqrCIxV61B9xyaew2cckWPbjiQmTwTbfc4mTvEgt+H9wT8ysdd8PZNhHastYrbNLa8cP3ti67ZC8zWwvLEqtvvC2OgNSRCBV0J6O4cckf1yg8CVmMj6HxXSlyiOZ6+ZoiwGwcMLnhkXyvcmHuBHCfkIYpEHX/5AhMHD6Xc6O21oT7n3/MWLaKub27rw9sYE5XsA9FOR8ETNr5Bf3NJhJzdM8BVH1Ws75nFniqXkv3buj1p6HlH0LuKpi9WhwcOL2aWXBMpl4IGsqDFHHneZxcySrUCpXpP9eRAgGg0S3jjxIV2PZUABZzOfY/zZQef0eFmqfMUlJLsOlK7tSsWjIjxgrfaAc4UDbrYBgif/2ThYZJ64Xkz22kFopJghUS/JnyAcFiMmaRfKxWKUYKVNlYVDuz2g0Sjh1ryDxyTJugzW3wAJO/XOB5SYcEo2gXMqytd9gTDqGLUFa8kDWKr+e1h7iiWeAGqAeyvfPlmuLgHblmBdBqF843kvrdSoUVYu12GI43dXvQbw1jPT0Jnjp3/EEoONMtVueJgB62XvZ//4wqKmdEhtaDaz5d22Dh/qGpt5kPFWSkAe+k4qHDvFPI1qLM1u2Fm2b+yyyHW6u7jT/IljhGM9EJakfoa72tzsqN99mFf/CzyrqqyNZLmSm2ytAO4EuF8WA82OkHPpho+4/89PR0khyNz29jZ1mi6uljgVDoMGmWcGBx5Noaa5Qbjrkkv5yejho5vVBLRVu99oat20R9nUpstaTUjx7VJEMvwf1dayoVk2j6UGm64CMlB2p1e6Zvhj5RwU52gY4XpitGs+Tb8kbZiQwNLoS0ot+tMQidszxG0I/KkstiCCpavGX8TnHZdZDOt6NJ1vepGvZ6AqKMVOjAOlasuuhzWpwHgbJgP0RlSytHlF4AUOQn85egz6RCEhjcq+LcrK247dNgBPKYwuTMP5VeU8UDLhsKor8MFsEdHEiP8wRRboz4okQHylW9zorb5spwOmWt7HxKSvsMxRKVfY4mpHkA74ec6f1HgdXseUTRFt2hpeBPKnq1OtUC2ZTOdeLDm78gctVW+kYUukMTkHXSFS2IvrtZ3LJl3MXFxMaAwX9D+u0JLta/EZ6ElS/MDdnlCn8/uxFy5ZZmcf4WEoi/1clVE3T/YG0jADxa0Edyg634zl0IG65FER10DE24b4kuBZaQwdk9Vx7A0S9QTkBm1LY4iUult5a6yaEBY6QbfyaBxftZl6/TG+fjSibNnWOl4rSfs7XA11QLAIydbR6KxvM1kaUPz+f+XYZZvO2kDaNqUkTJPxbdx28BN24iFKsoZskjqx5e3/igQkGZypLpPt1TZDcFkphDMzsvjLbrlpLVrD5FrnuoZg7KNAoodqpk2kQKrgQSpTjQeWVmfKjb8wXo0hqH44Y9XwVa2aylPpgTjGGH4bnF4+Z6A49UZ+iJR8za2lrmnhnRgGaQnMkniDSyXxRzf7X5C62866w42ZwQ1dX1nn43MmmZLRnJpIlwadNnSiIIHZQtvpg9/V6G8SaquWBJ4beTXjgus0xeYJ0ViNJJWCfWc4HYYD+oByp5kriqmP7lt/k35oqkJLXJ/QnulG6P4xxSYJClPSyK9VYInmjrCu9ejH8keTdnkrXXvzywVoViud06hnlXVo134kK16JHWnSMJT1zILaLmPwlZxNfogLqtDBk9Q2IrYynCjI8/VArOKwNpAt1FFa2PC5xtmEjdlQIfbtjZ4VYKehNBe+hJhz8Bnbo0QA5W/rL6rPX2y6H53kl+uvwrGbN2wEZHvb8IcdwdUVtNZdShpsvvbQF5cNWyE1DrGCUbxzlt16OpUAozSWgddI1HkPhyPertrMIkGONPDNCtzoVo820u+zzvv2C2i6lmSBiaOo4PkaH//C2qUq7GRawRTWyRLbQqfLUCh2BO/YwwDQWdIJZuzYmm5PjL2jzbIHnF/PU9exbcnkv25ll1wf7zD1BaeLp281T2QSkrqT3uz6Don/X8uPE9aVaZGY5AudMdEu9Xvf0iS/h7W6cWLIUmOrBc0k8jUHSZZvBQ0LdAe7GWhEsALtC6POr9Au5al6xVwP/wQaexF5U6mjcdwhHTHXwcu2Hjw57zQkWjU7r9SoqfHFF4/gg8BFgbQV0qRvH1pR1rrF3uyaE1lH4PomU09gkYuHMuYg9FVNtIHJplnyIWaWdMzA+nSd9w9/qqmF0uiWkqLR0CNVj03Sfp/XHQN4PXb7ImKbYVBpWXVh80flTJ1d9Uw4+jHMzxRGeQVoqIStPemhosRR/TmZ15inydTlT14uq/yUDqxAwmik7xhAcQO48Nl/ONerbsqAXxIN//LBa4z6FwKGd92RPDbyAUJnMa1pQJSn07iDd0NQE5MHC+QfxDaUWJlnlE6voI7bkxVB+nPvowHUcqv68bhSCJ9EJOpsl7WYg52aFMsYGPtO9fUvJEcyybz4si6HWj6kcNGMNZaJqkEmFMBP4+L1bMW4mcu4xiSCZm49dmBA214RFn6Xt3LiWidf0DexqESmMflREKuOtPLQ+0fa0OI1vG25U/cT/GloSpWQg7ksUcLpDYGVV5LWxBszlOXQejUS4EMngLct6zdoIuQiDyjrpnnsoSne8Qco5DCmktTEioLnIoptvSIxCOvGuwAOXGsF/VX+QRarzXQjTwxOl3tXrPQFH7KgE75EfoTW9BaNFr7/AXm0LWvarKmtvhyOYRVzySijcmYfyy2G1W9GUmLmGOMPbTyTWzujSIuk8G4ntHafH5Cv1uQZW3grkxvAS3US4fpcFmqy4ONitZ3gjxNiJj1ZJ4xL8LaQKxjn+yS1g7/dd/6BIg1kUzzSnVXVl1CiK0uJ8ahF01KTTVmZYSsZmZ19qbJ9XUfyW02/TSFIphApp267Lqv27DHn4gDi9DwLtRyCvHcasvpQCtUhjtBMU/GJmQtMF7FVBsPloe+AyVfssfeZnAiJGI8Qzns8quqnOzg6H9iw9++/picvgaq5kxwqgBU07QY0/QUeAYxbEltz1XqQhlctSYvbcpiNSN2hehWTDkYI/1kmIO5HvpqW4JNPnQMU/EEeZIqAG1WYwdAH6Yk5bxImgo/2awE8kLnekPK4zXpRpevYBf63RqGgEIgOB4L3XVx7Rd0AO0uMi9rwvBD07jENYUDuC/K6DG4zEPuGA8p3fj7Bo9/ofWZnrCZowPBZYysCweEk1vTFQk7/QEsdijL0AUkAwYbrsyY9F9V3uYeTsGAz+pKbE0mhBNZ20K3TQ022GoLZJDQCPqwpp6UOOYswd0G0/hWgsir5X4XpwMAGjgkYR15I4u10A/JyfPpvOrgX/XMOZzwrKOHGtgFwI4qaFHblp6Dp593ELeImd5M20XlRVBhX4g7tXoP/fIJJzT1SLUx013Ee4iHgy9U9Me7zZLyAOhkzfMSO5uKttYspRG+W6s/7LpxoD4FNBQWj05E0u8zGynzrahAwn/RlMOWYlBkmDkRNiuFXnLc7kty2JpM7t3NpgiCh7pH0fA6PPJ32qT6lr0FeWdfmxxjKJfpmveWPAL/WOR4Uk2MIHBhbuyV/HimuvZZj6EgoIoh0wJJecsTPpIFtBJHz+lRH0uyql1FDT6PTcaRjshheJfJcHH1CPUkQK7F8gqgrKCvMdJWSHdmTEjp88Gsq5mQAffDw6/5dmL9F21lOImfYu7XB3up3C6JB2Xzizio7Zmxq3ZUq2JQY9flsUmdV3janmjA7vnPEk3W9Xom/vE9N3H57tfpPoiPkjixsyc4+9/5q1Cb6yG/8P/UUCzkV5hES1YaSLpPteMXTo0kfi5NLWHPQoVaRNMwx2G6J4vGBo8msJegmg1ncSNiql8lgsIKeQjiEYJDjjYuZ9F77QeaBt5yZKgGTX82gIATSYRgbBnkB6uLRgABuAH2yED3IxnQAAA2UxgfKHcrodMnausPrY4RBV0w4OwbcuhXDqMl9QyoNlIfk9zgEmIW2qIr/Jo6uHBrGGKtD6uamtP/SBCB5Lgw5oH6xU60K2cNK3xW2laHg/NnVX/3ra9aDY6v2tLAZ/EJtI7jlHN2cRmPClrNFDhWXScrmd+j3HVPIXredLGpkY7hgWVEVtQ/ZMWkODstZF296mUKGuvV3r+MOQ4Jxtkh50EMa43jbYXALuv14OA+YoJ8E6G9uH2a7DKjguN9d/YzaQZIRxEPxFNgVm5izEqjlQ/wdWYFlZ2C2nQblBvgIwYA5CPOGCfD0lLTjUXssq49MpkO+9HRIEIrRjtvTEqQ25o885jUQMTjeEYW1Mm0OqWCpte7Xrg3LayNm3WP/xY595t4BFIU1ghr4AGjJFyt2cwJGt9XPDlVKQvBcZe7odTRAJoVefrcptZrtCjEDOJX2XkisiXxrqmt9EpH1TedWpjWYAtomywxIf5q6GzMbC5KczcI1Mkgbuln9HZO6Vj1s8HXB+J4fjaRhK3s4XGCAejI1aGZpEMi1Nrvvrsm2dhRFkurbz/iLCH7tPuNGUhnvv6IHc5pjEDm+3fCm3tVZ4c5uArDcDckOxld9Mz/jcNqFj8mwrG2UErK5g/tMmNKw4VyyH7OlkTR7rMNPGV5VChvjdx3CtuLuBAkRBg3b+o5j0rDSskGPH9Bmyj8GpEWtsTBxPut58y+LHd5GdHi3Lhkk0PuDlde06XeZrOjPjLKhu687XauzTLiGe3x559EoZb1rTwvqNmYvsi54dd51GOAryewwkCYN39rrDDB0S0p/bwFoUQpdzUy9PGpUccKKE2aMHfi/1fYxj8eCMSZo0fREWVyYEkKTamlesIx7aN41vpTpACdfNtE2Qci6rOiMQv13qzgo2Mo+o4CMtHNL3HfurDBX25o9n1gDrP9dsuoPibMa69jOmeU/850YOjQUhKKAvCSfVvgzAHsz8ZmWMNlzIKPQ1l4caEK+hEtXB7yz2RFf8vhyZK3WP4wB2TZ14sMP8OIKJCn2ze2DfmY0CsdzfwH+N1vvcVjTXluj0l1abvgf+z6/5B06pRifmIZVeLxRYOv5dST1/WUx75ZKYUVs0zwqOtvp0WoPxxNIRFaDgMXFwfHpmatpMPLESB6vbPg468md8OeDA/2DugSqhkdBe0m/TFesehYid7C7Ghrw8/pntfBM1O1Ux37n71Bc0ksV/lQzJ9fXv2uUt7LCKJJpq8clrtYehUTZFMh6A23fZkeo3VAhL2X9f0eE5pu9RYyRri1TpqWJK1VybPenQazM85hjLFOfKvibYHaN1QG8boljdimOQUcQeBt6E11vpzhCtGhEtyS2nS2wBkZodD0FigJD7zOWDkDNuH7pqNoTnYDmehmm50+gTMLZfRjVBm6SX/fTSyLNUnAr22EC3JW5dSEFPYs7dW4Jc4HADsuP9BJIrQ8PPq7sAd1hZoPYl619fyVYe5BSpGnyLQuyl7u1kpLorPkhopzflBakMmjAaU31kIKn6QROOCaMdYU114G+8g+VPXnQbuAKKIu1duiltKF1G/mF98vU8BODdlJzVjCsJvixJFAjF8uEL48zc6+dxK3VP4mSa+PfqD/qrc/gftZ8AnLp5XuQ6daSt8gPAL+9GpDsln/7pMkOTEtKZAeKbZsnyxJJFGqqj31fEn9c6G9l/dgRX8vIVnWxe6hRm7PEH4FNZRCnUig8DdX24xNSdn5cBYcuMZgCCvQhpwsJHc5dcaO2Xu1wxo9v3XnTheH1qFIx4WgqJUh3Itq0B9thQ9MivkE41UMCcP3I7K/WLbePLWgvX3NlzGVZM+DvsBo1R5Bgh8WSFDLF+ouDecqV/8Uu+O4YWilKycz4AToOere/xOrkOJss/YZWdr8jEa9jJUaywDXKG52i+/waB3hvxVMxqT4DGAhjMeLaR1QjcqFVI4OQMgiG3UFlyeZcuN/fe9/a8EhHmHIZfzAiqDcxgZphJja9AUNzaTri44nwB0Hho//r9q8NSXwg2+idPv6usfTQkho5nDsf1aV39P6SOJ2pmUDJ1YiwyaqwOMr42LoULsmXjymPmbCOMInTAc5RhaxTpnPqGsUqcPtxk3rjs+Nb8eMb1pMVK3kGPCPrphKEzQZaqRNw8QUUPATJSPCLYTiuxq6Qru0TB4uHaXqnSwRAQSkdiDGXh3UmA1XEiV3bxGT4KOkKR0KHsoIeKsGJjkQa0nxDIFtJZmnuQ/dJX9BJPbxfrK/S7UxLukQdL5l9hx2Ptrged5ONy8MGKXpbVToU1X+OepPUi/8566+aL4ucW7hLcUBEXP0lbMMZeFrKO1BhR7hBFN3OZViKLnXjxO7yadTaLTlHAH9QA2vmvfUnIdMq054sWi4nGZyF7pgSdEMBmEtBEuHB+ADqBO8r9lGE62e+O00CTjfagdEwa9BaH9+Xbns4CKsY59AUSxS+tW7yfLhJ22EQdt9rqmJJ+R6BA+E5uAbJWfuZFobTDyRFKaJ5ILgfyPGCzLrMNKR8hCRYIYje2GCQwZfJPz3kLudDp0F6FZPDJUNy23v2hJn3oQ1mNu9sjX+dE+eUSPyp8YGgOHBFg23gK4O4QpMM/gCiuly3qrGS5aWga4avJL1X9YSN8ijgxKXy5I81zN1ECkKRIe++cGk7J+ymuFSoKTG7Ev0ryi4mNQbjWBwSI5T8pYkaCrNxzTjWEcDQQHgIrwi/Ey0+lpxSJNK+lyFVFHriSZ8KPStlMDyphBNWWI6p31uHC/hcHOC5oJb5+OGl/s+FTbFOu22R1ey+FQlfrYVz6/pgZN3qN4hgRAOuJstfZSdDfhgNeGqefWQQDSG8h6mKBuaxcVjr0wLGke9LwxHCMlkXSSimw0NDaWEyyqXBIi+yOD4vme6KEyuUsesMzJaRdfToBT0b/g0ukc0nxI0pTGnNzLBLx16zQlUSKMz1Bxm7lfYEpjzd46q5++5tVjyS3gmc6gNg8iVWi1HQDPmK9BpKw+59ZDpIcLl63LJtUzrqogp3mrNXv/ZyXJlGO6G7A2Bn25VNkbowOtj1cp4i1WtUOTgHfU/ZeVHUOmKHTjLWJgT+tSe2CpKfuNJ4wvrfU0RCVIKAkqyM0/mrifbLN9rKcBh21PagFS6js1+998XSME5JzDigrR0w4I20UCH4fLQdclO8kJfScu72uOzmvD5byZJZxBDoe/Sel5YYcRPJ36n/oUfxnpUZvlYk4nwxPTG7O8ehplIpHRCV/CnPRZWURXF5/z0lmKSdXbH2vxiEJtmu8hF2jlgEQn5hoTF0kFGgkEJQujOc2W4UjmSrOljVSxTlTqFVBW5E+U480KBhx8XbWAM0J/MZBHOwAl+RnmZP2YDSe2IEsugMweU1LFQvYhNHpSczzJrgFGunoiLkUHGAMrKDTwOWOmjygB9GlOPdHdemehh7waV/KmVXLAYrUSuI1dFK9rdkTuY5pjH+fJKNMabVynR062+AmiyBhrzGU8k2tZq2Sw34m7EC9m2GI1w+oZ/iGgdycIYXJnvli2YrIeE3/eFq4bo1wgxfa+vJvyOtPfUUd16zDl2b8VcWoVKtvQ2d/8GsGSv+2u7dHlZarUchfsxSd1mdqgfmKNLTOXwyL6TxkDn2erdKTwr+1N2EXmyFaSa97rFRAhXm71SOnvyGHYQ1gMVPkEvrCzR6T0eMkQSk2MqaTE5NlWzXkEJehg3WEzzMtw35X4WkylhGFh/Ajk6/ldqAhfYWiq+Ubaa4PALgKqwsNjQ+aa1u6rffbxmLrcm+thPfteBWUxreFWxKlKLw9Ks6vBXyHkM+IIG3sZUJTroR5Ayh8HZyZSVvL+Pwcvm6uyJ06agw4cfcsJne7S7/6/nORn+jLp7EgUgW6buJ8gwvX2XNk63W85lv+u24in2OwtFsghF0ETVxEfmYgl7TaiDsXLETFtyVnEfvlzi74jDuK5v/21tC6FIAY843l4OK1XSIbQBVpmDWrXEbcc3AYtVxnxB8rzi7apx+S1VxsARcXO+mSN0ZeYETmNFghveAPBK5Bt9xZuC/x/L64i26/DASB+JIquT+3/YsZMtIH9E2NoOyFA9yfv0TmLR13C3sm9bRMlqHZ1731J8OHaORB1dhFf7B++6uMX+PZ5mSCWPuHLScp5enPwVnRS0bKtvHzIFATf+4g1fc5S9i847c8s3s16aF54QEBTLdgRTFD5QdQzT1LUW/tCHkmYyUJZwBO+DwfXYi6GbfiSYWjxyQ7HdLyVLcnrR5czB/Tr8Gz8L8pvCfTThyuZujQqE9JIiEg3PCUli15EEnPRX0SyncH64nCLP2W3bdLpOoXsoX7ATUsK2gONJZpS2vTkbiVq7yO3iomNyxpk6y3v/T9Gh4/UQmmjEq2eCVIAkS/IsWPsk61wFrZeRvluHJ0AkppKkyBz8U0xiX3Gz5OGUHEzKndbkNMA2MMuYLi5wd5ELBlLoB3eK7sWfHxP3DL19eLF32m5nueQLlNa2hcldGPUySCCGecrj8KYo0R7lh2YAK7XxmIf/LnPOkDJ7lV5T5LNdSe87nSUVnj5yS1reXrD5+k7tDksjJGqGRXruk3H8Gz8CMPav0AXK+WUxDGlJoMLGOlSkPygApYRF9o/dB5ZN+ZokkvRNKWTN2+ZOsKVli5G8eJTBgcMZ1JtbbJjPey1KOxGA4ahuGNZDYvfcAFC4Yq2Obp0vQKwNyHSCPM5JLAXPRYJKG2Tdo0drECUvMVMvwc/Wv3KzdhzyUVKBOQBt3kciftQ79omNCQKCDUw1sYucNQ+QkJG8rntNaBFDeJjOqkoSAd98qXqH1h2r6MvZGC6nl/alXEvx9ZgeyiHCelFJLXDRpR27F4QWiVoHwDVR03lwBCnZDVRD7Ratc7CDXHn+/tjFpY7kSSLaj6PMuyVQZpHlvWM9SYnFRXFa2IGHFkIwj9AlKDAXAu/8cnJgNyJhw7OrSfvvIHB5GV/3d6FEP+CGR5gXZcUOYjzK+89jQQaJYDHC/fg1FR6aTmkW002RZtlZEtzduKjpENkWNica5RGGZO7LHeAb9LknbwbRzolJHnvSgCcz0IaPiTkQOu46O58euHTg672YEpTXnvN/KStzKih6W6Us/qNoH9ACcL9c28VZHGbehqkUTUihPJwicpaiPeyxfHM1a69QLGdj/c2K13z7qNDpXgY2RClyiPAKgvUzmb5+9fa6+FWiXw4HrjEHBkCaFwVeZ9Wed1tHW1dfmplgOYOiXAVAu2lok247yfwhMWtMjo4DKTU4oYVRwOnspSvAVRGjNU/wpZGll8LGUNZgFm8SMZTCpZp+r8T2Oz8bTLfY7CGYWEl3eNFmNGHi9/ETqE2ywp6470m6heQVWQkLtW3/uNYcieLGN+syT8SYF//xLVFMooLeoj0Q394X9OLfcCbpp0RMe++OQKSxq+PxEy6AY6PXazELVaWvWZtue//r+ti8G/4ao2Zr0PjrlT45AWquO4XoHnw0dUGRWwAnAd5gCmHA53ZGjbHDl/WJxLawC/fo619t8RNygA4GKqneQ7RIrgHEf23AlwLJCRS1ryUwZaHkw1EmLG4Qh97c+wUc9LAJnEWRpLZ/En8SxSbBOpSG/L+Tadt7+Or3vgAtCda6EmT5eOgnE18Sg/vfudrJ820gEtDGUJnixlA/xVi7pM9bZBhykE4odXIMZUzQm1TMT3SwwS31D4S+LwS5ndXzCpA66sxc4LbeCMhLK6LOmliTAa6jZ4acDCofR4RFx12yntGBYGn5vYv9yx8mnV+ndInoZML/aLJqHh814rGvUmLbR8/jz1D87Sw0G3076EjIyvv1l/ddo82RWgEp6tDHhoRlDYNP+RB82UKeehA3Av7JMAnfPx5lAZvuHBD7d0HJwGgameVxkJOLAI6WYDNsiFtXGXsb/46yctxCO3Xk7U24/P1ktVP1oDwseqyWa4PX+H268tt6c07QwrznvIPLOq6naMhQCUVTVKazcde7rOGJT15RFzDAAcoN3VhbJbGIaEOyGlPczCyhOkx2saQomG2gBVoY4eN3tAS4FTFyS43QKoKq2rIJoX2ADZsjyI3Kp6F0P5yHNQXwPSmjeX/uz30EeCutdRc6lwbCwNgrZ42/8HeGgjtMPdAb2NMrZC6ODxcHJB3klXP//U+Xz5eEA8VlbKvxep8gk6dJ0Rf+GRq9MhMgwwPAtViMLDol9NZ7TZynKi/mrKrwyE+Zsk1mnQcorN/1LQpuYIIDSBdm9gKThhrv+6y5kKSuA3eQM56ZUhlL7cw0FwYYXcrCYnTa/oaBdNfestqzFREzxTWPgQNcAKrBlSEwgQJJQcmpqGDCMFCjGDsPdGmxjIWRHqEtRYuZ6omP56x14kztAp3zMRLJOyp4bs0vacBdKnmwzEdEm/HvVSg3kLGsgAf4YbJ8CS0F92reXpkieFLyaNcx9OZYI5alXnNy6RrTzdEzDWCSDyqKZAk+r+tZik8Ka/wH7u92n57NnRVmyZilLFOtgqIjznZyGhCZf+nX93ibsGPM0Lg0wqR3isBZJZonou07ZEmqqX0giafcVo4v906Sdt5SxCjjA0hUo+VsXQW1/DamhV53mWbBhw1Yk02ZRlyCQINI9PVVKQ+fcbiMvryhj7oNBN3qATrbezF2F7vveNB2/GKXPcGMyAXlW43dyx3Y64XEUv4eVQwxd05/HXa4q3fgY7IE4xHXvUBLb/OQZ3SidFDZU+nzYAdRZkTvTiIVvRRCmVHXSZTjPs5AP2SCt+IGejhg8I2yVNhIJ0jKdw9zzy2PgaQt2VQhbrDw+JA7n7wdffMrctaErPDHbyy8QXtRcCAfvOTTkR2qTRyHRgRZsSdscYiHJ2yLbGjyP0r+CAh41SXgoS+ABh28WBMRgfWh7MS580h/ycLl7SDY4YArYYJyiUnlqyyUL8e/PCcQ7YnzqbqO3UBRLaD0N/UOjdfIrrD281djxld0PsTS9L5O2dOjEixmV1VYI9sT7O20lCT43C/o428O3Hr81TDzxpTmNFFiig5iOCnk9Bme4U4ypdVUGCoUNp81n+9Th1d6rh/XkjwI/AgmiaQcHRMeaReZvGsJKAkYsNukZZ/1Pp4OxPRcbO4HBuTzbEXXKGSc+bBrSsQ5p/BaXn2niGLDlTCtGzuhJ//0K4yhauYVouSxvJcAKjmTRkRa5lO26DnpWw303RdayhJ/RU29pCgOpWJzOjouFJSjL8ycUFTSLup8CGKzq2Te1ynXm/K6tJ/+dfbKmYw6q/9FLdsFi/JEwlNE9iRAKp5tR0k2HBQeO/6VQ7CSmvxQZzkq3JiDYur2Y2Ta1NPgbyvig2HezgNDti4fnklVCkYBMXD3BxA1YirkXOWeh3m5mEKERlObbNQy5Z0eFrLkcIAHxEczwRp+cLEFEaq2LmlRx6EIFONPz1ldUhEseiB587SjiY3BdpXI7GQDNvTE40V+2cj0DpvheBAUALhhHmHDWx/09fa9jHwGJoh8AtKED7zmQFMaUxoMOSFSvIKKg6FTKP/TSrihEm6KCzBJLvUiiSBh98DoDqJElRcid8Lz0AwfKvUcvQamAD7KlT+v4ONEM9bXJwfLD2P+GgiuE2Y1/THNz+qS6DWHLXHD+JH+SNoEmM4sFOgGBAA6XnaxAZ7nfdTRfqMdvSsJHw1UXL0ixqgzVhsPyB5sjKD3dp/x3iOoQtelYF0AQyLh1HQwOLIjkRwubCVrSnGxy5ydrfhu50CviUyv3HGW1kwVNlB071UwzbcSizIh5z4qLbMCN4cwzXT9iYNTpnpJqTeKaftElmZLMc9HKtGnisFPNHclYner0ajmYxsj1/iJYyQTbLAl81xF6gHA1VeSH4rjBqEWrHmvaTkwnQh0vbnd4btO8ooWecU9SpNFd72huHcnF57jbMwUyry60rAM3RfM0XQSHSn0/J4WSnNz0bLBcEAtSB5OrJ2k3RHLnoRU8YQR08OUACbBzii0a9wkRuOTH0ctNaBWY5O6gvyAY4ay4TlyPm1psUmSI1lU5Gp+ttAz8Bu1HUIyP0oq3NfFHIZ5gc1Rrh0xh8URFfTLMPYz1RFWvz69EbK4du3S1ogiprMoBDodxUU+IsO0ggQNcZXBKlwJ4U8nIw2LK/WEzj3wUUnHgcp2ocSrIQDANtLETd+qYD/P6Oy5P4av9R8m/qrkhym6Wb0DmIJyX5beptIwUGaOy/EKpVj683GRSpywkcit81J6XX7j8E1cekH7gI/MQz8fQvZgiQpcebHuSjybxpnpwVedFWLeIOgc67qf90EFOc9XPParB2ukhNEn3qa/xwEARYU1r95ZsgljKmT+QGc/go59EvnCPpS5RnN3iLUZlj/WIh20m3vZW+fJLmPIymJ0RFSKxuOYW4qUIkmc4z9+cFy5f45wWP5p/2ekQPWeWwG0kGx3DgNURIuzhzQWYYwGHbDZcLpnjV4EBXmGtd5ezSq9eqHujngOQHjbFw78K8PhzwbZ6+84g4ihm9NDAckjMFQmfHKypYrFf2ztHCgbPpWb7UiGs2bWchM0yruXP2H8mDc68Kg933Pzc1LjJI2wY/a/zKrXqu1lukBjPLLJ9f0boHA905kZCsxlZBBr4GCIJ5h6kI5Z6Ihd+WZ/IHQYxIUkHZaUVTxhRM4dqKWYoS43OsRZRB6M+4PDDZUCcqmwADo/GQ6x91speO80Z17jq2dWKVgPDmnDv5Eej7zebiJtSChI/4QXOmJyp/fujuALFIoUBsp++dQtBf1vviYCnVlXM/wXoh+RRRDc6D1+TpAXBkRSYFFnn+vibvULPNyVNnCO+SrFBO+Qj7ZQFHYAI3VrgxHqM1BqP7twRLXeOd2h+qiGQnbNMMjFM98s2WB2cFPbnf6L3/277z0Bl7yBvoFhmzJRloq23cDhJXZwQVw2p480gPLXXLO2/RQg+TMf8TzB9SsrLuFr5RXOdkRTl/QoRpOYU/A/BMlgXn5jhNHf6AmupIj+Icj4fPY+xlhO/+PgLosSYJHvP+rG0gI+EBpHJGoQqq9YY21au7dQNfm2koUR4FrfN9At9lCc0JyaJ6G7aSh4fyDxmP16Tcd2SGfJIHPXxm9R26Q4Q656GD2daM9ysAbBljKYlHgIz28vfFtOW1gvDzmZYlLBOX9y7dTXKBEmNTPn/Q3FERxABS6/V1sJHMN/PuOrPVwCEi7P1J2eRYvZGxtFJPaLX0bZdfoU7T5WnjswJ9Lolsc7gMQK4IG73R06R7maSv8AFNcXpl80vIBz+SL5JcXlyC4aXU20ImmCSZ14oUfAlhS/xdBPy0r0j40VrOKEizhuBOx0F+M/NOCvIs6mZvo/suT4OGo3fUXEmeIQS2Pc/RHGi43Y8/PRvjfTU2XGcfrMhQeBY3CwZUKp2PovDtv8wqkIf+1lGb+Fnl8EmvCfW/jTfxEg3RncqeLrWX6wFbfe/ku1l+zFU4X0j/eauLgOqsBaoHq/LhQhHqUpwJWrTLPsHfAmEc0xgR2XaArJQ3zOEo8gfdqZKYvRR152oAfjCrox/BMe491g2onYbutbEETOCDx2mt8JQZO0x8oHNT/Ij4wKjsP3L3w9Rw5mj4EjcnQNiXkH558Zc58YIif/RVJHCZOr3vccTgI8BK3BXjutLEy4zUG26mfqwkT616C8URKDRoB/XEMVuOqiZYGZ9EaiY9M50Bc8Gk9xMT2BdHKB6kxqsLgsPF+m1u3BTexKSz2N5CqaiS4gwm7JvjKOCIkzl8jTGaapdgYuD0d9y+mZY7ireFUL+WfyCZCg0eI/Ed3Ki0J2RIi/rSFMVLxdmWIjw+BvH/Tevwe1N61kWaA2bpxEiZZBeUTrel7NURRUvIlIkohUS/HvZUHlmxlrVIsQ42UDmiwefi6Kl7oTSBk/3/V66mhxOtzKx22ue3sk2bsx9s0nSoIxBdCoMF+QHehVx2sqjmuui4+yZ5+tNAun3bnOfswebHNH78lVM4qBSvlNxq8UapyEx+zNDUWlDeqVTvFafn9REBoixT5FgUSwFW/cXEWG7/K8B4gFkR4AF0Wx0Bc/64ysRs0DbeXPNyyJPwlHXzVMekaeJWTUz3tAXjS12c+D4YaaoTQbdxoIokWuDte4bCQgfYBbUBFWBjcghriBsAjtams051h06+h6TAkajGQ2apWTOq6TF48xcQTaviiNa9USy9HcAgiInZFwdDpIMjhnrkZFo2qxyrIZuHqjgYY0XNtTr2IlOZZhBkCmjN4TRHflQ/5d+6wPhoWGCZIoVkUKtvnl2DQ2ooanwE2pmcOeO1F8yC1TvzpKZBX1ybr+1CfA4WyKbSBG4twneU73f+7HW3O9rRFaMUAZ+mBUus0379/S6mGzoWsu0ZQAm+tud8QaWZ651gMdBqKhJx7bFajH3kUtOwl2kxef3dW3/8qDIYmvgkdcuwUqrjb68zZFimlzP8CwEdPtx6uK4RR6VKZrV12p+/+E/didl0Ke0fQxVQktBctooljs8CPx1v1uFj9/nUbI7lqR7/jFYyJJvwN09v+C7gy2IlH9RrS0kKkTZyiTf37RKzDhX8IWJ9COG10XLq/mCtrqZXmcTu2465wWyNV5TXRCx0m/chY/LlIMJZZybGRyFSZXgPnB3EsnNGQHsiDHdQ9awyfYlVOlOkvdHXAmgrtlyG92nPxnEA9XD6kcQN18Pw5heh8msakLKkatdfFTwaZmGG6D856XpkXz+AONQVrCqnwgtiSkaJXzHvkmOmIq8kzY2Bzz9BDfpBrAstWE+GGZGVS65vQnc2eSyhFaPpwt9w59Do4hExttBbB/z22jfTGhAcKhL28rYWoL7mdwXhZUJvuFmAUBb3SYKx8fQaS//Sc0WTR0o3KNq+sE5HqYrlqozEo39eUxMT6mbzjmLzkeoaPWazox44FY3UAzH1ORJajX5MlqI4VCZmMdSTTQiL1O7S0vR/DUj2EHiABw6QAtycieBr4YkB2OxZ8rxS9YBB4pDC1YmFxwYqQ5YEt4aOp3Yyo+uqW4pRCe5hVg7m5O1CqBfoDRoCC1IK0U8mRePump/yTAMOFYm6pgS2diSHjEJ0R2ML7i2HwJXEu5nTCwP0GTGkmReVu/8WntSGaCMBYHe2A9s/KQWoTVCvlfzRl8itO2KQDva+DmlcMRuAXQhiuXz3mJx17CcZK0u1L/8faxq/MAAYxKZF72FBzjnySRhsCOGz+CpIYiUHvRopGLmBvJtS0ol0iYc9fVfpUsuIXXaVa43wCSBOB1darNY984Ydr0HXJ2nFUj89dr/ggB381YvEHQ4AqkV6D/MsZh58hJacHKm/Vi5jwwdkCJpYBMyx+YCPW/PQgrPj6YBjbdwr2zppBV4LWqc70w+g0hJLS7p6gsBKeHnuE419jAsaQlCMHtBuAAQAc+gqXmxnR9QERLqVrFZLfe9/r/KQUcYKex7IM/qu4EaoYVeE/cAF7P3soMIAQnwa11Pm+VwcbhYiB4c42uGLJzcTnpSjZgCS7KAAnjuqmqM7mrmyGYYxVClIgAAAAA==;clipPath=inset(1.19% 74% 69.64% 4.33%);" vertex="1" parent="1">
                    <mxGeometry x="320" y="200" width="159.19" height="120" as="geometry"/>
                </mxCell>
                <mxCell id="6" value="&lt;font style=&quot;font-size: 14px;&quot; face=&quot;Times New Roman&quot;&gt;&lt;b style=&quot;&quot;&gt;&lt;i style=&quot;&quot;&gt;r&lt;sub style=&quot;&quot;&gt;1&lt;/sub&gt;&lt;/i&gt;&lt;/b&gt;&lt;/font&gt;" style="text;html=1;align=center;verticalAlign=middle;resizable=0;points=[];autosize=1;strokeColor=none;fillColor=none;" vertex="1" parent="1">
                    <mxGeometry x="310" y="230" width="30" height="30" as="geometry"/>
                </mxCell>
                <mxCell id="7" value="&lt;font style=&quot;&quot; face=&quot;Times New Roman&quot;&gt;&lt;b style=&quot;&quot;&gt;&lt;i style=&quot;&quot;&gt;&lt;span style=&quot;font-size: 14px;&quot;&gt;r&lt;/span&gt;&lt;span style=&quot;font-size: 11.6667px;&quot;&gt;&lt;sub&gt;2&lt;/sub&gt;&lt;/span&gt;&lt;/i&gt;&lt;/b&gt;&lt;/font&gt;" style="text;html=1;align=center;verticalAlign=middle;resizable=0;points=[];autosize=1;strokeColor=none;fillColor=none;" vertex="1" parent="1">
                    <mxGeometry x="310" y="270" width="30" height="30" as="geometry"/>
                </mxCell>
                <mxCell id="8" value="&lt;font style=&quot;font-size: 14px;&quot; face=&quot;Times New Roman&quot;&gt;&lt;b style=&quot;&quot;&gt;&lt;i style=&quot;&quot;&gt;r&lt;sub style=&quot;&quot;&gt;3&lt;/sub&gt;&lt;/i&gt;&lt;/b&gt;&lt;/font&gt;" style="text;html=1;align=center;verticalAlign=middle;resizable=0;points=[];autosize=1;strokeColor=none;fillColor=none;" vertex="1" parent="1">
                    <mxGeometry x="460" y="230" width="30" height="30" as="geometry"/>
                </mxCell>
                <mxCell id="9" value="&lt;font style=&quot;font-size: 14px;&quot; face=&quot;Times New Roman&quot;&gt;&lt;b style=&quot;&quot;&gt;&lt;i style=&quot;&quot;&gt;r&lt;sub style=&quot;&quot;&gt;4&lt;/sub&gt;&lt;/i&gt;&lt;/b&gt;&lt;/font&gt;" style="text;html=1;align=center;verticalAlign=middle;resizable=0;points=[];autosize=1;strokeColor=none;fillColor=none;" vertex="1" parent="1">
                    <mxGeometry x="460" y="270" width="30" height="30" as="geometry"/>
                </mxCell>
            </root>
        </mxGraphModel>
    </diagram>
</mxfile>